<svg xmlns="http://www.w3.org/2000/svg" width="23.563" height="15.47" viewBox="0 0 23.563 15.47">
  <metadata><?xpacket begin="﻿" id="W5M0MpCehiHzreSzNTczkc9d"?>
<x:xmpmeta xmlns:x="adobe:ns:meta/" x:xmptk="Adobe XMP Core 5.6-c138 79.159824, 2016/09/14-01:09:01        ">
   <rdf:RDF xmlns:rdf="http://www.w3.org/1999/02/22-rdf-syntax-ns#">
      <rdf:Description rdf:about=""/>
   </rdf:RDF>
</x:xmpmeta>
                                                                                                    
                                                                                                    
                                                                                                    
                                                                                                    
                                                                                                    
                                                                                                    
                                                                                                    
                                                                                                    
                                                                                                    
                                                                                                    
                                                                                                    
                                                                                                    
                                                                                                    
                                                                                                    
                                                                                                    
                                                                                                    
                                                                                                    
                                                                                                    
                                                                                                    
                                                                                                    
                           
<?xpacket end="w"?></metadata>
<defs>
    <style>
      .cls-1 {
        fill-rule: evenodd;
      }
    </style>
  </defs>
  <path id="behance_Icon" data-name="behance Icon" class="cls-1" d="M659.469,7046.78h5.868v1.53h-5.868v-1.53Zm8.094,9.1h-7.64c0.081,1.91.982,2.61,2.6,2.61,1.169,0,2.112-.39,2.3-1.06h2.329c-0.818,2.58-2.329,3.32-4.727,3.32-3.338,0-5.407-2.37-5.407-5.75,0-3.27,2.192-5.77,5.407-5.77C666.026,7049.23,667.767,7052.53,667.563,7055.88Zm-7.64-2.23h4.732c-0.267-1.52-.9-2.15-2.316-2.15A2.208,2.208,0,0,0,659.923,7053.65Zm-3.673,2.43c0,3.06-2.52,4.37-5.163,4.37H644v-15.18h6.885c2.784,0,4.669,1.03,4.669,3.84a3.322,3.322,0,0,1-1.988,3.15A3.662,3.662,0,0,1,656.25,7056.08Zm-6.3-8.25h-3.011v3.52H650.2a1.707,1.707,0,0,0,1.967-1.79C652.164,7048.12,651.1,7047.83,649.952,7047.83Zm0.491,5.78h-3.5v4.14h3.44c1.271,0,2.376-.42,2.376-1.98A2.006,2.006,0,0,0,650.443,7053.61Z" transform="translate(-644 -7045.28)"/>
</svg>
