<svg xmlns="http://www.w3.org/2000/svg" width="17.687" height="15.47" viewBox="0 0 17.687 15.47">
  <metadata><?xpacket begin="﻿" id="W5M0MpCehiHzreSzNTczkc9d"?>
<x:xmpmeta xmlns:x="adobe:ns:meta/" x:xmptk="Adobe XMP Core 5.6-c138 79.159824, 2016/09/14-01:09:01        ">
   <rdf:RDF xmlns:rdf="http://www.w3.org/1999/02/22-rdf-syntax-ns#">
      <rdf:Description rdf:about=""/>
   </rdf:RDF>
</x:xmpmeta>
                                                                                                    
                                                                                                    
                                                                                                    
                                                                                                    
                                                                                                    
                                                                                                    
                                                                                                    
                                                                                                    
                                                                                                    
                                                                                                    
                                                                                                    
                                                                                                    
                                                                                                    
                                                                                                    
                                                                                                    
                                                                                                    
                                                                                                    
                                                                                                    
                                                                                                    
                                                                                                    
                           
<?xpacket end="w"?></metadata>
<defs>
    <style>
      .cls-1 {
        fill-rule: evenodd;
      }
    </style>
  </defs>
  <path id="google_Icon" data-name="google Icon" class="cls-1" d="M704.605,7080.84v2.75H703.5v-2.75h-2.763v-1.12H703.5v-2.75h1.105v2.75h2.763v1.12h-2.763Zm-7.642-2.78a2.886,2.886,0,0,1,1.555,2.62,3.056,3.056,0,0,1-1.369,2.37c-0.752.59-.895,0.83-0.895,1.33a2.983,2.983,0,0,0,1.228,1.45,3.219,3.219,0,0,1,1.6,3.03c0,1.69-1.6,3.57-4.549,3.57-2.591,0-4.845-1.26-4.845-2.95,0-1.71,2.063-3.36,4.653-3.36,0.282,0,.541-0.01.808-0.01a1.809,1.809,0,0,1-.634-1.29,1.994,1.994,0,0,1,.236-0.89c-0.141.01-.284-0.01-0.432-0.01a3.414,3.414,0,0,1-3.553-3.44c0-1.84,1.968-3.53,4.059-3.53h4.664l-1.043,1.11h-1.479Zm-2.133,8.5c-1.79-.02-3.394,1.09-3.394,2.43,0,1.36,1.293,2.35,3.083,2.35,2.517,0,3.394-.92,3.394-2.28a2.147,2.147,0,0,0-.057-0.49c-0.2-.77-0.894-1.15-1.866-1.82A3.594,3.594,0,0,0,694.83,7086.56Zm2.011-5.86a3.16,3.16,0,0,0-2.6-2.88c-1.2-.03-2.007,1.18-1.8,2.75s1.349,2.89,2.551,2.93S697.049,7082.28,696.841,7080.7Z" transform="translate(-689.688 -7076.97)"/>
</svg>
