<svg xmlns="http://www.w3.org/2000/svg" width="9.594" height="15.47" viewBox="0 0 9.594 15.47">
  <metadata><?xpacket begin="﻿" id="W5M0MpCehiHzreSzNTczkc9d"?>
<x:xmpmeta xmlns:x="adobe:ns:meta/" x:xmptk="Adobe XMP Core 5.6-c138 79.159824, 2016/09/14-01:09:01        ">
   <rdf:RDF xmlns:rdf="http://www.w3.org/1999/02/22-rdf-syntax-ns#">
      <rdf:Description rdf:about=""/>
   </rdf:RDF>
</x:xmpmeta>
                                                                                                    
                                                                                                    
                                                                                                    
                                                                                                    
                                                                                                    
                                                                                                    
                                                                                                    
                                                                                                    
                                                                                                    
                                                                                                    
                                                                                                    
                                                                                                    
                                                                                                    
                                                                                                    
                                                                                                    
                                                                                                    
                                                                                                    
                                                                                                    
                                                                                                    
                                                                                                    
                           
<?xpacket end="w"?></metadata>
<defs>
    <style>
      .cls-1 {
        fill-rule: evenodd;
      }
    </style>
  </defs>
  <path id="tumblr_Icoon" data-name="tumblr Icoon" class="cls-1" d="M750.843,7091.58a9.441,9.441,0,0,1-1.77.66,7.181,7.181,0,0,1-1.715.19,4.567,4.567,0,0,1-1.645-.27,3.977,3.977,0,0,1-1.371-.76,2.8,2.8,0,0,1-.788-1.06,4.621,4.621,0,0,1-.219-1.62v-5.42h-2.072v-2.19a5.4,5.4,0,0,0,1.72-.85,4.211,4.211,0,0,0,1.03-1.33,6.049,6.049,0,0,0,.534-1.97h2.17v3.58h3.527v2.76h-3.527v3.96a6.818,6.818,0,0,0,.082,1.67,1.386,1.386,0,0,0,.582.67,2.137,2.137,0,0,0,1.157.31,4.129,4.129,0,0,0,2.3-.77v2.44Z" transform="translate(-741.25 -7076.97)"/>
</svg>
