<svg xmlns="http://www.w3.org/2000/svg" width="14.719" height="11.78" viewBox="0 0 14.719 11.78">
  <metadata><?xpacket begin="﻿" id="W5M0MpCehiHzreSzNTczkc9d"?>
<x:xmpmeta xmlns:x="adobe:ns:meta/" x:xmptk="Adobe XMP Core 5.6-c138 79.159824, 2016/09/14-01:09:01        ">
   <rdf:RDF xmlns:rdf="http://www.w3.org/1999/02/22-rdf-syntax-ns#">
      <rdf:Description rdf:about=""/>
   </rdf:RDF>
</x:xmpmeta>
                                                                                                    
                                                                                                    
                                                                                                    
                                                                                                    
                                                                                                    
                                                                                                    
                                                                                                    
                                                                                                    
                                                                                                    
                                                                                                    
                                                                                                    
                                                                                                    
                                                                                                    
                                                                                                    
                                                                                                    
                                                                                                    
                                                                                                    
                                                                                                    
                                                                                                    
                                                                                                    
                           
<?xpacket end="w"?></metadata>
<defs>
    <style>
      .cls-1 {
        fill-rule: evenodd;
      }
    </style>
  </defs>
  <path id="twitter_Icon" data-name="twitter Icon" class="cls-1" d="M701.918,7048.96a3.145,3.145,0,0,1,2.39.93,4.963,4.963,0,0,0,1.549-.51c0.126-.07.251-0.14,0.376-0.2a2.946,2.946,0,0,1-.981,1.39,1.4,1.4,0,0,1-.332.24h0a5.5,5.5,0,0,0,1.712-.45v0.01a4.7,4.7,0,0,1-1.026,1.15c-0.157.13-.314,0.25-0.472,0.37a8.528,8.528,0,0,1-6.063,8.51,9.159,9.159,0,0,1-4.278.17,12.027,12.027,0,0,1-1.777-.57,6.049,6.049,0,0,1-.856-0.44c-0.088-.05-0.177-0.1-0.265-0.16a5.083,5.083,0,0,0,.966.04c0.3-.05.589-0.03,0.863-0.09a6.357,6.357,0,0,0,1.814-.65,3.517,3.517,0,0,0,.819-0.53,2.464,2.464,0,0,1-.9-0.16,3,3,0,0,1-1.917-1.9,3.16,3.16,0,0,0,1.349-.06,2.321,2.321,0,0,1-.988-0.39,2.867,2.867,0,0,1-1.424-2.55c0.1,0.04.207,0.09,0.31,0.14a2.978,2.978,0,0,0,.635.17,0.948,0.948,0,0,0,.413.04H693.82c-0.152-.17-0.4-0.29-0.553-0.48a3.011,3.011,0,0,1-.679-2.7,3.5,3.5,0,0,1,.325-0.78,0.17,0.17,0,0,0,.014.01,1.827,1.827,0,0,0,.273.31,5.328,5.328,0,0,0,.9.85,9,9,0,0,0,3.695,1.76,5.739,5.739,0,0,0,1.358.17,2.694,2.694,0,0,1,.014-1.39,2.972,2.972,0,0,1,1.712-2.01,4.253,4.253,0,0,1,.671-0.2C701.673,7048.99,701.8,7048.97,701.918,7048.96Z" transform="translate(-691.906 -7048.97)"/>
</svg>
